<svg xmlns="http://www.w3.org/2000/svg" xmlns:xlink="http://www.w3.org/1999/xlink" viewBox="0 0 52 81" fill="#fff" fill-rule="evenodd" stroke="#000" stroke-linecap="round" stroke-linejoin="round"><use xlink:href="#A" x=".5" y=".5"/><symbol id="A" overflow="visible"><path d="M17.085 62.983h16.3v5.415h-16.3zM22.12 80h6.072l5.035-5.724H17.085zm-4.294-52.6c-1.333 0-2.666 1.238-2.666 2.785 0 1.392 1.185 2.785 2.666 2.785h2.666v-2.785c-.296-1.547-1.333-2.785-2.666-2.785zm13.92 0c-1.333 0-2.666 1.238-2.666 2.785v2.785h2.666c1.333 0 2.666-1.238 2.666-2.785 0-1.392-1.037-2.785-2.666-2.785zm18.215-4.022v-.464c0-12.376-10.07-22.432-22.5-22.742-.296-.464-7.405.155-7.405.155C8.792 1.72.054 11.466.054 22.76c0 .3-1.185 9.282 7.553 16.863 4 3.713 8.145 13.614 8.738 16.4l.444.928h16.3l.444-.928c.592-2.94 4.887-12.84 8.738-16.4 8.737-7.426 7.7-15.934 7.7-16.244zM31.894 36.064H29.23V56.33h-2.962V36.064h-2.814v20.112H20.5v-20.1h-2.666c-2.962 0-5.628-2.785-5.628-5.88s2.518-5.88 5.628-5.88 5.628 2.785 5.628 5.88v2.785h2.666v-2.785c0-3.094 2.666-5.88 5.628-5.88s5.628 2.785 5.628 5.88c.148 3.25-2.518 5.88-5.48 5.88z" fill="#0078d7" stroke="none"/></symbol></svg>